<svg width="31" height="32" viewBox="0 0 31 32" fill="none" xmlns="http://www.w3.org/2000/svg">
<g clip-path="url(#clip0_28_653)">
<path d="M14.2083 5.33331H5.16668C4.48153 5.33331 3.82445 5.61426 3.33998 6.11436C2.85552 6.61446 2.58334 7.29273 2.58334 7.99998V26.6666C2.58334 27.3739 2.85552 28.0522 3.33998 28.5523C3.82445 29.0524 4.48153 29.3333 5.16668 29.3333H23.25C23.9352 29.3333 24.5922 29.0524 25.0767 28.5523C25.5612 28.0522 25.8333 27.3739 25.8333 26.6666V17.3333M23.8958 3.33331C24.4097 2.80288 25.1066 2.50488 25.8333 2.50488C26.56 2.50488 27.257 2.80288 27.7708 3.33331C28.2847 3.86374 28.5734 4.58316 28.5734 5.33331C28.5734 6.08346 28.2847 6.80288 27.7708 7.33331L15.5 20L10.3333 21.3333L11.625 16L23.8958 3.33331Z" stroke="#1E1E1E" stroke-width="4" stroke-linecap="round" stroke-linejoin="round"/>
</g>
<defs>
<clipPath id="clip0_28_653">
<rect width="31" height="32" fill="white"/>
</clipPath>
</defs>
</svg>
